<svg id="Layer_1" enable-background="new 0 0 64 64" height="512" viewBox="0 0 64 64" width="512" xmlns="http://www.w3.org/2000/svg"><path d="m60.5 53.5h-57c-1.105 0-2-.895-2-2v-41c0-1.105.895-2 2-2h57c1.105 0 2 .895 2 2v41c0 1.105-.895 2-2 2z" fill="#8d7bd4"/><path d="m60.5 51.5h-57c-1.105 0-2-.895-2-2v2c0 1.105.895 2 2 2h57c1.105 0 2-.895 2-2v-2c0 1.105-.895 2-2 2z" fill="#826ec8"/><path d="m60.5 8.5h-57c-1.105 0-2 .895-2 2v2c0-1.105.895-2 2-2h57c1.105 0 2 .895 2 2v-2c0-1.105-.895-2-2-2z" fill="#968cd2"/><path d="m60.5 54h-57c-1.379 0-2.5-1.121-2.5-2.5v-41c0-1.379 1.121-2.5 2.5-2.5h57c1.379 0 2.5 1.121 2.5 2.5v41c0 1.379-1.121 2.5-2.5 2.5zm-57-45c-.827 0-1.5.673-1.5 1.5v41c0 .827.673 1.5 1.5 1.5h57c.827 0 1.5-.673 1.5-1.5v-41c0-.827-.673-1.5-1.5-1.5z" fill="#785ae6"/><path d="m52.5 16.5h6v6h-6z" fill="#fa8cb4"/><path d="m52.5 16.5h6v6h-6z" fill="#fa8cb4"/><path d="m52.5 25.5h6v6h-6z" fill="#fa8cb4"/><path d="m52.5 34.5h6v6h-6z" fill="#fa8cb4"/><path d="m52.5 34.5h6v6h-6z" fill="#fa8cb4"/><path d="m52.5 43.5h6v6h-6z" fill="#fa8cb4"/><path d="m43.5 16.5h6v6h-6z" fill="#fa8cb4"/><path d="m43.5 16.5h6v6h-6z" fill="#fa8cb4"/><path d="m43.5 25.5h6v6h-6z" fill="#fa8cb4"/><path d="m43.5 34.5h6v6h-6z" fill="#fa8cb4"/><path d="m43.5 34.5h6v6h-6z" fill="#fa8cb4"/><path d="m43.5 43.5h6v6h-6z" fill="#fa8cb4"/><path d="m34.5 16.5h6v6h-6z" fill="#fa8cb4"/><path d="m34.5 16.5h6v6h-6z" fill="#fa8cb4"/><path d="m34.5 25.5h6v6h-6z" fill="#fa8cb4"/><path d="m34.5 34.5h6v6h-6z" fill="#fa8cb4"/><path d="m34.5 34.5h6v6h-6z" fill="#fa8cb4"/><path d="m34.5 43.5h6v6h-6z" fill="#fa8cb4"/><path d="m25.5 16.5h6v6h-6z" fill="#fa8cb4"/><path d="m25.5 16.5h6v6h-6z" fill="#fa8cb4"/><path d="m25.5 25.5h6v6h-6z" fill="#fa8cb4"/><path d="m25.5 34.5h6v6h-6z" fill="#fa8cb4"/><path d="m25.5 34.5h6v6h-6z" fill="#fa8cb4"/><path d="m25.5 43.5h6v6h-6z" fill="#fa8cb4"/><g fill="#785ae6"><path d="m58.5 23h-6c-.276 0-.5-.224-.5-.5v-6c0-.276.224-.5.5-.5h6c.276 0 .5.224.5.5v6c0 .276-.224.5-.5.5zm-5.5-1h5v-5h-5z"/><path d="m58.5 23h-6c-.276 0-.5-.224-.5-.5v-6c0-.276.224-.5.5-.5h6c.276 0 .5.224.5.5v6c0 .276-.224.5-.5.5zm-5.5-1h5v-5h-5z"/><path d="m58.5 32h-6c-.276 0-.5-.224-.5-.5v-6c0-.276.224-.5.5-.5h6c.276 0 .5.224.5.5v6c0 .276-.224.5-.5.5zm-5.5-1h5v-5h-5z"/><path d="m58.5 41h-6c-.276 0-.5-.224-.5-.5v-6c0-.276.224-.5.5-.5h6c.276 0 .5.224.5.5v6c0 .276-.224.5-.5.5zm-5.5-1h5v-5h-5z"/><path d="m58.5 41h-6c-.276 0-.5-.224-.5-.5v-6c0-.276.224-.5.5-.5h6c.276 0 .5.224.5.5v6c0 .276-.224.5-.5.5zm-5.5-1h5v-5h-5z"/><path d="m58.5 50h-6c-.276 0-.5-.224-.5-.5v-6c0-.276.224-.5.5-.5h6c.276 0 .5.224.5.5v6c0 .276-.224.5-.5.5zm-5.5-1h5v-5h-5z"/><path d="m49.5 23h-6c-.276 0-.5-.224-.5-.5v-6c0-.276.224-.5.5-.5h6c.276 0 .5.224.5.5v6c0 .276-.224.5-.5.5zm-5.5-1h5v-5h-5z"/><path d="m49.5 23h-6c-.276 0-.5-.224-.5-.5v-6c0-.276.224-.5.5-.5h6c.276 0 .5.224.5.5v6c0 .276-.224.5-.5.5zm-5.5-1h5v-5h-5z"/><path d="m49.5 32h-6c-.276 0-.5-.224-.5-.5v-6c0-.276.224-.5.5-.5h6c.276 0 .5.224.5.5v6c0 .276-.224.5-.5.5zm-5.5-1h5v-5h-5z"/><path d="m49.5 41h-6c-.276 0-.5-.224-.5-.5v-6c0-.276.224-.5.5-.5h6c.276 0 .5.224.5.5v6c0 .276-.224.5-.5.5zm-5.5-1h5v-5h-5z"/><path d="m49.5 41h-6c-.276 0-.5-.224-.5-.5v-6c0-.276.224-.5.5-.5h6c.276 0 .5.224.5.5v6c0 .276-.224.5-.5.5zm-5.5-1h5v-5h-5z"/><path d="m49.5 50h-6c-.276 0-.5-.224-.5-.5v-6c0-.276.224-.5.5-.5h6c.276 0 .5.224.5.5v6c0 .276-.224.5-.5.5zm-5.5-1h5v-5h-5z"/><path d="m40.5 23h-6c-.276 0-.5-.224-.5-.5v-6c0-.276.224-.5.5-.5h6c.276 0 .5.224.5.5v6c0 .276-.224.5-.5.5zm-5.5-1h5v-5h-5z"/><path d="m40.5 23h-6c-.276 0-.5-.224-.5-.5v-6c0-.276.224-.5.5-.5h6c.276 0 .5.224.5.5v6c0 .276-.224.5-.5.5zm-5.5-1h5v-5h-5z"/><path d="m40.5 32h-6c-.276 0-.5-.224-.5-.5v-6c0-.276.224-.5.5-.5h6c.276 0 .5.224.5.5v6c0 .276-.224.5-.5.5zm-5.5-1h5v-5h-5z"/><path d="m40.5 41h-6c-.276 0-.5-.224-.5-.5v-6c0-.276.224-.5.5-.5h6c.276 0 .5.224.5.5v6c0 .276-.224.5-.5.5zm-5.5-1h5v-5h-5z"/><path d="m40.5 41h-6c-.276 0-.5-.224-.5-.5v-6c0-.276.224-.5.5-.5h6c.276 0 .5.224.5.5v6c0 .276-.224.5-.5.5zm-5.5-1h5v-5h-5z"/><path d="m40.5 50h-6c-.276 0-.5-.224-.5-.5v-6c0-.276.224-.5.5-.5h6c.276 0 .5.224.5.5v6c0 .276-.224.5-.5.5zm-5.5-1h5v-5h-5z"/><path d="m31.5 23h-6c-.276 0-.5-.224-.5-.5v-6c0-.276.224-.5.5-.5h6c.276 0 .5.224.5.5v6c0 .276-.224.5-.5.5zm-5.5-1h5v-5h-5z"/><path d="m31.5 23h-6c-.276 0-.5-.224-.5-.5v-6c0-.276.224-.5.5-.5h6c.276 0 .5.224.5.5v6c0 .276-.224.5-.5.5zm-5.5-1h5v-5h-5z"/><path d="m31.5 32h-6c-.276 0-.5-.224-.5-.5v-6c0-.276.224-.5.5-.5h6c.276 0 .5.224.5.5v6c0 .276-.224.5-.5.5zm-5.5-1h5v-5h-5z"/><path d="m31.5 41h-6c-.276 0-.5-.224-.5-.5v-6c0-.276.224-.5.5-.5h6c.276 0 .5.224.5.5v6c0 .276-.224.5-.5.5zm-5.5-1h5v-5h-5z"/><path d="m31.5 41h-6c-.276 0-.5-.224-.5-.5v-6c0-.276.224-.5.5-.5h6c.276 0 .5.224.5.5v6c0 .276-.224.5-.5.5zm-5.5-1h5v-5h-5z"/><path d="m31.5 50h-6c-.276 0-.5-.224-.5-.5v-6c0-.276.224-.5.5-.5h6c.276 0 .5.224.5.5v6c0 .276-.224.5-.5.5zm-5.5-1h5v-5h-5z"/></g><path d="m5.5 46.5h7v3h-7z" fill="#96aaf0" transform="matrix(-1 0 0 -1 18 96)"/><path d="m15.5 46.5h7v3h-7z" fill="#96aaf0" transform="matrix(-1 0 0 -1 38 96)"/><path d="m5.5 40.5h7v3h-7z" fill="#96aaf0" transform="matrix(-1 0 0 -1 18 84)"/><path d="m15.5 40.5h7v3h-7z" fill="#96aaf0" transform="matrix(-1 0 0 -1 38 84)"/><path d="m12.5 50h-7c-.276 0-.5-.224-.5-.5v-3c0-.276.224-.5.5-.5h7c.276 0 .5.224.5.5v3c0 .276-.224.5-.5.5zm-6.5-1h6v-2h-6z" fill="#785ae6"/><path d="m22.5 50h-7c-.276 0-.5-.224-.5-.5v-3c0-.276.224-.5.5-.5h7c.276 0 .5.224.5.5v3c0 .276-.224.5-.5.5zm-6.5-1h6v-2h-6z" fill="#785ae6"/><path d="m12.5 44h-7c-.276 0-.5-.224-.5-.5v-3c0-.276.224-.5.5-.5h7c.276 0 .5.224.5.5v3c0 .276-.224.5-.5.5zm-6.5-1h6v-2h-6z" fill="#785ae6"/><path d="m22.5 44h-7c-.276 0-.5-.224-.5-.5v-3c0-.276.224-.5.5-.5h7c.276 0 .5.224.5.5v3c0 .276-.224.5-.5.5zm-6.5-1h6v-2h-6z" fill="#785ae6"/><circle cx="9" cy="14.5" fill="#aad2ff" r="3"/><circle cx="9" cy="23.5" fill="#aad2ff" r="3"/><circle cx="19" cy="14.5" fill="#aad2ff" r="3"/><circle cx="19" cy="23.5" fill="#aad2ff" r="3"/><circle cx="9" cy="32.5" fill="#aad2ff" r="3"/><circle cx="19" cy="32.5" fill="#aad2ff" r="3"/><path d="m9 18c-.241 0-.481-.024-.716-.073-.271-.056-.444-.32-.388-.591s.326-.449.591-.388c.167.034.34.052.513.052 1.379 0 2.5-1.121 2.5-2.5 0-.286-.048-.567-.143-.836-.092-.261.045-.546.306-.638.26-.093.547.045.638.306.132.376.199.769.199 1.168 0 1.93-1.57 3.5-3.5 3.5z" fill="#785ae6"/><path d="m6.348 16.403c-.179 0-.353-.097-.442-.267-.265-.5-.406-1.067-.406-1.636 0-1.93 1.57-3.5 3.5-3.5.472 0 .93.093 1.362.274.254.107.374.4.267.655-.108.253-.399.373-.655.267-.309-.13-.637-.196-.974-.196-1.379 0-2.5 1.121-2.5 2.5 0 .413.098.807.29 1.17.129.243.035.546-.209.676-.074.039-.154.057-.233.057z" fill="#785ae6"/><path d="m26.5 13.5h8c.552 0 1-.448 1-1 0-.552-.448-1-1-1h-8c-.552 0-1 .448-1 1 0 .552.448 1 1 1z" fill="#826ec8"/><path d="m34.5 14h-8c-.827 0-1.5-.673-1.5-1.5s.673-1.5 1.5-1.5h8c.827 0 1.5.673 1.5 1.5s-.673 1.5-1.5 1.5zm-8-2c-.275 0-.5.225-.5.5s.225.5.5.5h8c.275 0 .5-.225.5-.5s-.225-.5-.5-.5z" fill="#826ec8"/><path d="m38.5 13.5h14c.552 0 1-.448 1-1 0-.552-.448-1-1-1h-14c-.552 0-1 .448-1 1 0 .552.448 1 1 1z" fill="#826ec8"/><path d="m52.5 14h-14c-.827 0-1.5-.673-1.5-1.5s.673-1.5 1.5-1.5h14c.827 0 1.5.673 1.5 1.5s-.673 1.5-1.5 1.5zm-14-2c-.275 0-.5.225-.5.5s.225.5.5.5h14c.275 0 .5-.225.5-.5s-.225-.5-.5-.5z" fill="#826ec8"/><path d="m19 18c-.241 0-.481-.024-.716-.073-.271-.056-.444-.32-.388-.591.057-.271.325-.449.591-.388.167.034.34.052.513.052 1.379 0 2.5-1.121 2.5-2.5 0-.286-.048-.567-.143-.836-.092-.261.045-.546.306-.638.262-.093.547.045.638.306.132.376.199.769.199 1.168 0 1.93-1.57 3.5-3.5 3.5z" fill="#785ae6"/><path d="m16.348 16.403c-.179 0-.353-.097-.442-.267-.265-.5-.406-1.067-.406-1.636 0-1.93 1.57-3.5 3.5-3.5.472 0 .93.093 1.362.274.254.107.374.4.267.655-.107.253-.4.373-.655.267-.309-.13-.637-.196-.974-.196-1.379 0-2.5 1.121-2.5 2.5 0 .413.098.807.29 1.17.129.243.035.546-.209.676-.074.039-.154.057-.233.057z" fill="#785ae6"/><path d="m9 27c-.241 0-.481-.024-.716-.073-.271-.056-.444-.32-.388-.591s.326-.448.591-.388c.167.034.34.052.513.052 1.379 0 2.5-1.121 2.5-2.5 0-.286-.048-.567-.143-.836-.092-.261.045-.546.306-.638.26-.093.547.045.638.306.132.376.199.769.199 1.168 0 1.93-1.57 3.5-3.5 3.5z" fill="#785ae6"/><path d="m6.348 25.403c-.179 0-.353-.097-.442-.267-.265-.5-.406-1.067-.406-1.636 0-1.93 1.57-3.5 3.5-3.5.472 0 .93.093 1.362.274.254.107.374.4.267.655-.108.253-.399.372-.655.267-.309-.13-.637-.196-.974-.196-1.379 0-2.5 1.121-2.5 2.5 0 .413.098.807.29 1.17.129.243.035.546-.209.676-.074.039-.154.057-.233.057z" fill="#785ae6"/><path d="m19 27c-.241 0-.481-.024-.716-.073-.271-.056-.444-.32-.388-.591.057-.271.325-.448.591-.388.167.034.34.052.513.052 1.379 0 2.5-1.121 2.5-2.5 0-.286-.048-.567-.143-.836-.092-.261.045-.546.306-.638.262-.093.547.045.638.306.132.376.199.769.199 1.168 0 1.93-1.57 3.5-3.5 3.5z" fill="#785ae6"/><path d="m16.348 25.403c-.179 0-.353-.097-.442-.267-.265-.5-.406-1.067-.406-1.636 0-1.93 1.57-3.5 3.5-3.5.472 0 .93.093 1.362.274.254.107.374.4.267.655-.107.253-.4.372-.655.267-.309-.13-.637-.196-.974-.196-1.379 0-2.5 1.121-2.5 2.5 0 .413.098.807.29 1.17.129.243.035.546-.209.676-.074.039-.154.057-.233.057z" fill="#785ae6"/><path d="m9 36c-.241 0-.481-.024-.716-.073-.271-.056-.444-.32-.388-.591s.326-.447.591-.388c.167.034.34.052.513.052 1.379 0 2.5-1.121 2.5-2.5 0-.286-.048-.567-.143-.836-.092-.261.045-.546.306-.638.26-.093.547.045.638.306.132.376.199.769.199 1.168 0 1.93-1.57 3.5-3.5 3.5z" fill="#785ae6"/><path d="m6.348 34.403c-.179 0-.353-.097-.442-.267-.265-.5-.406-1.067-.406-1.636 0-1.93 1.57-3.5 3.5-3.5.472 0 .93.093 1.362.274.254.107.374.4.267.655-.108.253-.399.373-.655.267-.309-.13-.637-.196-.974-.196-1.379 0-2.5 1.121-2.5 2.5 0 .413.098.807.29 1.17.129.243.035.546-.209.676-.074.039-.154.057-.233.057z" fill="#785ae6"/><path d="m19 36c-.241 0-.481-.024-.716-.073-.271-.056-.444-.32-.388-.591.057-.271.325-.447.591-.388.167.034.34.052.513.052 1.379 0 2.5-1.121 2.5-2.5 0-.286-.048-.567-.143-.836-.092-.261.045-.546.306-.638.262-.093.547.045.638.306.132.376.199.769.199 1.168 0 1.93-1.57 3.5-3.5 3.5z" fill="#785ae6"/><path d="m16.348 34.403c-.179 0-.353-.097-.442-.267-.265-.5-.406-1.067-.406-1.636 0-1.93 1.57-3.5 3.5-3.5.472 0 .93.093 1.362.274.254.107.374.4.267.655-.107.253-.4.373-.655.267-.309-.13-.637-.196-.974-.196-1.379 0-2.5 1.121-2.5 2.5 0 .413.098.807.29 1.17.129.243.035.546-.209.676-.074.039-.154.057-.233.057z" fill="#785ae6"/></svg>