<svg height="512pt" viewBox="-96 0 512 512.0006" width="512pt" xmlns="http://www.w3.org/2000/svg"><path d="m196.167969 8.800781c-2.609375-7-10.398438-10.554687-17.394531-7.945312l-5.367188 2.003906c-6.996094 2.609375-10.554688 10.398437-7.945312 17.398437l4.0625 10.886719c2.253906 6.03125 2 12.738281-.835938 18.519531-5.988281 12.203126-12.023438 36.421876 18.632812 57.035157l23.816407 13.996093 18.667969-21.757812zm0 0" fill="#f5c956"/><path d="m259.972656 315.578125-53.765625-27.5625c-30.738281 15.871094-50.929687 63.839844-59.695312 90.144531-3.414063 10.25-14.992188 15.25-24.816407 10.761719-9.148437-4.175781-13.179687-14.976563-9.003906-24.121094l3.289063-7.203125c103.257812-226.1875 138.707031-186.511718 113.824219-258.660156l-42.484376 7.761719-.003906-.003907c-54.542968 86.015626-114.367187 98.84375-176.40625 234.730469-27.636718 60.542969-.960937 132.027344 59.578125 159.664063 60.539063 27.636718 132.023438.964844 159.660157-59.578125 14.726562-32.253907 30.792968-59.960938 47.929687-68.292969zm0 0" fill="#f8e86a"/><path d="m84.910156 473.273438c-60.539062-27.636719-87.214844-99.121094-59.574218-159.660157 2.136718-4.6875 4.273437-9.214843 6.410156-13.617187-6.914063 12.445312-13.859375 26.15625-20.835938 41.429687-27.636718 60.542969-.960937 132.027344 59.578125 159.664063 60.539063 27.636718 132.023438.964844 159.660157-59.578125 1.792968-3.921875 3.605468-7.777344 5.4375-11.542969-32.097657 48.835938-95.867188 68.324219-150.675782 43.304688zm0 0" fill="#f5c956"/><path d="m43.785156 428.941406c-1.074218 0-2.164062-.222656-3.203125-.699218-3.882812-1.769532-5.59375-6.355469-3.820312-10.238282l4.28125-9.378906c1.773437-3.882812 6.355469-5.59375 10.238281-3.820312 3.882812 1.769531 5.589844 6.355468 3.820312 10.238281l-4.285156 9.378906c-1.296875 2.84375-4.101562 4.519531-7.03125 4.519531zm0 0" fill="#423e4f"/><path d="m147.453125 476.269531c-1.074219 0-2.164063-.226562-3.203125-.699219-3.882812-1.773437-5.59375-6.355468-3.820312-10.238281l4.28125-9.382812c1.773437-3.878907 6.355468-5.589844 10.238281-3.820313 3.882812 1.773438 5.59375 6.355469 3.820312 10.238282l-4.28125 9.382812c-1.300781 2.839844-4.101562 4.519531-7.035156 4.519531zm0 0" fill="#423e4f"/><path d="m101.320312 459.367188c-3.792968 0-7.613281-.820313-11.191406-2.453126-7.015625-3.203124-12.265625-9.152343-14.402344-16.320312-1.222656-4.089844 1.101563-8.390625 5.191407-9.613281 4.089843-1.222657 8.394531 1.105469 9.613281 5.195312.863281 2.894531 3.058594 5.332031 6.015625 6.679688 2.957031 1.351562 6.234375 1.410156 8.988281.167969 3.890625-1.757813 8.464844-.027344 10.222656 3.863281 1.753907 3.886719.027344 8.464843-3.863281 10.21875-3.335937 1.507812-6.941406 2.261719-10.574219 2.261719zm0 0" fill="#423e4f"/><g fill="#f5c956"><path d="m286.207031 379.398438c-3.042969-1.390626-5.832031-3.453126-8.128906-6.179688l-71.871094-85.203125c-8.308593-9.84375-7.058593-24.5625 2.789063-32.867187 9.847656-8.308594 24.566406-7.054688 32.867187 2.789062l71.875 85.203125c8.304688 9.847656 7.054688 24.5625-2.789062 32.867187-7.125 6.007813-16.796875 7.019532-24.742188 3.390626zm0 0"/><path d="m161.570312 133.832031c-9.914062-4.523437-21.621093-.15625-26.144531 9.757813-4.527343 9.914062-.160156 21.621094 9.753907 26.148437 9.914062 4.527344 21.621093.15625 26.148437-9.757812 4.527344-9.914063.160156-21.621094-9.757813-26.148438zm0 0"/><path d="m117.757812 180.042969c-9.914062-4.527344-21.621093-.160157-26.144531 9.753906-4.527343 9.917969-.160156 21.621094 9.753907 26.148437 9.914062 4.527344 21.621093.160157 26.148437-9.753906 4.527344-9.917968.160156-21.625-9.757813-26.148437zm0 0"/><path d="m190.027344 314.824219c-11.789063-5.382813-25.707032-.1875-31.089844 11.601562-5.382812 11.789063-.1875 25.707031 11.601562 31.089844 11.789063 5.382813 25.710938.1875 31.089844-11.601563 5.382813-11.789062.191406-25.707031-11.601562-31.089843zm0 0"/><path d="m153.234375 375.199219c-11.789063-5.382813-25.707031-.1875-31.089844 11.601562-5.382812 11.789063-.1875 25.710938 11.601563 31.09375 11.789062 5.378907 25.707031.1875 31.089844-11.601562 5.382812-11.789063.1875-25.710938-11.601563-31.09375zm0 0"/><path d="m73.789062 230.382812c-9.914062-4.527343-21.621093-.160156-26.148437 9.753907-4.523437 9.917969-.15625 21.625 9.757813 26.148437 9.914062 4.527344 21.621093.160156 26.148437-9.753906 4.523437-9.917969.15625-21.625-9.757813-26.148438zm0 0"/></g></svg>