<svg height="480pt" viewBox="0 -3 480.882 480" width="480pt" xmlns="http://www.w3.org/2000/svg"><path d="m213.574219 4.441406c-115.746094 0-209.574219 93.828125-209.574219 209.574219 0 115.742187 93.828125 209.574219 209.574219 209.574219 115.742187 0 209.574219-93.832032 209.574219-209.574219 0-115.746094-93.832032-209.574219-209.574219-209.574219zm0 253.695313c-24.328125 0-44.121094-19.792969-44.121094-44.121094 0-24.332031 19.792969-44.121094 44.121094-44.121094s44.121093 19.789063 44.121093 44.121094c0 24.328125-19.792968 44.121094-44.121093 44.121094zm0 0" fill="#4671c6"/><path d="m213.574219 4.441406c-115.746094 0-209.574219 93.828125-209.574219 209.574219 0 115.742187 93.828125 209.574219 209.574219 209.574219 115.742187 0 209.574219-93.832032 209.574219-209.574219 0-115.746094-93.832032-209.574219-209.574219-209.574219zm0 253.695313c-24.328125 0-44.121094-19.792969-44.121094-44.121094 0-24.332031 19.792969-44.121094 44.121094-44.121094s44.121093 19.789063 44.121093 44.121094c0 24.328125-19.792968 44.121094-44.121093 44.121094zm0 0" fill="#4671c6"/><g fill="#a4c9ff"><path d="m171.050781 225.613281-.039062.007813c3.417969 12.515625 12.210937 22.828125 23.738281 28.289062l.019531-.042968c-11.523437-5.457032-20.300781-15.746094-23.71875-28.253907zm0 0"/><path d="m128.453125 237.230469-117.101563 31.941406c16.195313 59.527344 57.964844 108.507813 112.785157 134.414063l51.792969-109.78125c-23.054688-10.921876-40.644532-31.546876-47.476563-56.574219zm0 0"/><path d="m232.019531 173.988281.015625-.03125c-4.191406-1.941406-8.734375-3.242187-13.507812-3.777343 4.765625.546874 9.300781 1.871093 13.492187 3.808593zm0 0"/><path d="m215.972656 169.964844c-.792968-.046875-1.59375-.070313-2.402344-.070313.808594 0 1.609376.023438 2.402344.070313zm0 0"/><path d="m213.574219 169.894531c-.804688 0-1.605469.023438-2.402344.070313.796875-.046875 1.597656-.070313 2.402344-.070313zm0 0"/><path d="m210.8125 169.988281c-.699219.042969-1.394531.101563-2.085938.175781.691407-.074218 1.386719-.128906 2.085938-.175781zm0 0"/><path d="m218.421875 170.167969c-.695313-.078125-1.390625-.136719-2.089844-.175781.699219.042968 1.398438.097656 2.089844.175781zm0 0"/><path d="m213.574219 125.773438c13.179687 0 25.683593 2.925781 36.921875 8.128906l50.8125-110.253906c-26.691406-12.320313-56.40625-19.207032-87.734375-19.207032s-61.042969 6.886719-87.734375 19.207032l50.8125 110.253906c11.238281-5.203125 23.742187-8.128906 36.921875-8.128906zm0 0"/><path d="m195.113281 173.960938.011719.03125c4.191406-1.941407 8.726562-3.261719 13.496094-3.8125-4.773438.539062-9.316406 1.839843-13.507813 3.78125zm0 0"/></g><path d="m213.574219 427.589844c-117.765625 0-213.574219-95.808594-213.574219-213.574219s95.808594-213.574219 213.574219-213.574219 213.574219 95.808594 213.574219 213.574219-95.808594 213.574219-213.574219 213.574219zm0-419.148438c-113.355469 0-205.574219 92.21875-205.574219 205.574219 0 113.351563 92.21875 205.574219 205.574219 205.574219s205.574219-92.222656 205.574219-205.574219c0-113.355469-92.21875-205.574219-205.574219-205.574219zm0 0" fill="#3762cc"/><path d="m213.574219 395.832031c-100.253907 0-181.816407-81.5625-181.816407-181.816406s81.558594-181.820313 181.816407-181.820313c100.253906 0 181.816406 81.566407 181.816406 181.820313s-81.5625 181.816406-181.816406 181.816406zm0-355.703125c-95.882813 0-173.886719 78.003906-173.886719 173.886719s78.003906 173.886719 173.886719 173.886719c95.882812 0 173.886719-78.003906 173.886719-173.886719s-78.003907-173.886719-173.886719-173.886719zm0 0" fill="#3762cc"/><path d="m213.574219 364.113281c-82.765625 0-150.097657-67.335937-150.097657-150.097656 0-82.765625 67.332032-150.097656 150.097657-150.097656s150.097656 67.332031 150.097656 150.097656c0 82.761719-67.332031 150.097656-150.097656 150.097656zm0-292.265625c-78.390625 0-142.167969 63.777344-142.167969 142.167969 0 78.394531 63.777344 142.167969 142.167969 142.167969s142.164062-63.777344 142.164062-142.167969c0-78.386719-63.773437-142.167969-142.164062-142.167969zm0 0" fill="#3762cc"/><path d="m213.574219 332.394531c-65.273438 0-118.375-53.105469-118.375-118.378906s53.101562-118.375 118.375-118.375c65.273437 0 118.375 53.105469 118.375 118.375 0 65.273437-53.101563 118.378906-118.375 118.378906zm0-228.824219c-60.898438 0-110.445313 49.542969-110.445313 110.445313 0 60.898437 49.546875 110.445313 110.445313 110.445313 60.898437 0 110.445312-49.546876 110.445312-110.445313 0-60.902344-49.546875-110.445313-110.445312-110.445313zm0 0" fill="#3762cc"/><path d="m213.574219 125.773438c-48.65625 0-88.242188 39.585937-88.242188 88.242187 0 48.660156 39.582031 88.242187 88.242188 88.242187 48.65625 0 88.242187-39.582031 88.242187-88.242187 0-48.65625-39.585937-88.242187-88.242187-88.242187zm0 132.363281c-24.328125 0-44.121094-19.792969-44.121094-44.121094 0-24.332031 19.792969-44.121094 44.121094-44.121094s44.121093 19.789063 44.121093 44.121094c0 24.328125-19.792968 44.121094-44.121093 44.121094zm0 0" fill="#f9a7a7"/><path d="m213.574219 306.257812c-50.863281 0-92.242188-41.378906-92.242188-92.242187s41.378907-92.242187 92.242188-92.242187 92.242187 41.378906 92.242187 92.242187-41.378906 92.242187-92.242187 92.242187zm0-176.484374c-46.453125 0-84.242188 37.792968-84.242188 84.242187s37.792969 84.242187 84.242188 84.242187 84.242187-37.792968 84.242187-84.242187-37.792968-84.242187-84.242187-84.242187zm0 132.363281c-26.535157 0-48.121094-21.585938-48.121094-48.121094s21.585937-48.121094 48.121094-48.121094c26.535156 0 48.121093 21.585938 48.121093 48.121094s-21.589843 48.121094-48.121093 48.121094zm0-88.242188c-22.125 0-40.121094 18-40.121094 40.121094 0 22.125 17.996094 40.125 40.121094 40.125 22.121093 0 40.121093-18 40.121093-40.125 0-22.121094-18-40.121094-40.121093-40.121094zm0 0" fill="#3762cc"/><path d="m289.664062 48.914062c-23.941406-11.082031-49.523437-16.71875-76.09375-16.71875-26.542968 0-52.148437 5.621094-76.101562 16.703126l3.332031 7.199218c22.902344-10.597656 47.382813-15.96875 72.769531-15.96875 25.414063 0 49.882813 5.386719 72.773438 15.984375zm0 0" fill="#e0ebfc"/><path d="m139.390625 371.257812c-46.113281-21.835937-80.183594-62.363281-93.597656-111.484374l-7.648438 2.089843c14.023438 51.363281 49.644531 93.738281 97.863281 116.566407zm0 0" fill="#e0ebfc"/><path d="m273.070312 84.90625c-18.722656-8.664062-38.742187-13.058594-59.496093-13.058594-20.753907 0-40.773438 4.394532-59.496094 13.058594l-3.332031-7.199219c19.777344-9.148437 40.914062-13.789062 62.828125-13.789062 21.917969 0 43.054687 4.640625 62.828125 13.789062zm0 0" fill="#e0ebfc"/><path d="m76.789062 252.828125-.445312-1.382813-7.542969 2.054688.359375 1.492188c11.875 41.777343 41.292969 76.375 80.722656 94.925781l3.378907-7.175781c-37.355469-17.570313-65.226563-50.34375-76.472657-89.914063zm0 0" fill="#e0ebfc"/><path d="m163.195312 321.128906c-31.441406-14.847656-54.710937-42.53125-63.839843-75.960937l7.652343-2.089844c8.515626 31.1875 30.226563 57.023437 59.570313 70.878906zm0 0" fill="#e0ebfc"/><path d="m259.792969 113.710938c-14.542969-6.730469-30.09375-10.140626-46.21875-10.140626s-31.675781 3.410157-46.21875 10.140626l-3.332031-7.199219c15.597656-7.214844 32.269531-10.875 49.550781-10.875s33.953125 3.660156 49.550781 10.875zm0 0" fill="#e0ebfc"/><path d="m427.03125 451.984375h-48.648438c-6.707031 0-12.144531-5.4375-12.144531-12.144531v-194.921875h72.9375v194.921875c0 6.707031-5.4375 12.144531-12.144531 12.144531zm0 0" fill="#6bdddd"/><path d="m403.4375 337.550781c-6.25 0-11.320312-5.066406-11.320312-11.320312v-33.964844c0-6.253906 5.066406-11.324219 11.320312-11.324219s11.324219 5.070313 11.324219 11.324219v33.964844c0 6.25-5.070313 11.320312-11.324219 11.320312zm0 0" fill="#e0ebfc"/><path d="m403.4375 280.570312c-6.25 0-11.320312 5.429688-11.320312 12.128907v12.9375c0 6.699219 5.066406 12.128906 11.320312 12.128906s11.324219-5.429687 11.324219-12.128906v-12.9375c0-6.699219-5.070313-12.128907-11.324219-12.128907zm0 0" fill="#4671c6"/><path d="m410.40625 360.253906c0 3.527344-2.859375 6.386719-6.386719 6.386719-3.527343 0-6.386719-2.859375-6.386719-6.386719s2.859376-6.386718 6.386719-6.386718c3.527344 0 6.386719 2.859374 6.386719 6.386718zm0 0" fill="#f9a7a7"/><path d="m402.554688 214.929688h-46.03125c-1.113282 0-1.992188 1.179687-1.941407 2.582031.3125 8.964843 2.242188 17.753906 5.675781 25.765625.429688 1.011718 1.261719 1.640625 2.164063 1.640625h80.269531c.902344 0 1.734375-.628907 2.164063-1.640625 3.429687-8.011719 5.363281-16.800782 5.675781-25.765625.046875-1.402344-.832031-2.582031-1.941406-2.582031zm0 0" fill="#f9a7a7"/><path d="m356.523438 214.929688h92.066406c.589844 0 1.109375.339843 1.464844.863281 10.785156-12.285157 17.390624-28.746094 17.390624-46.855469 0-37.996094-29.050781-68.796875-64.878906-68.796875-35.832031 0-64.878906 30.800781-64.878906 68.796875 0 18.101562 6.601562 34.558594 17.378906 46.839844.355469-.515625.871094-.847656 1.457032-.847656zm0 0" fill="#a4c9ff"/><path d="m430.03125 458.667969v-7.074219c-.960938.246094-1.964844.390625-3 .390625h-48.644531c-.378907 0-.757813-.023437-1.128907-.058594v6.742188c0 6.078125 4.929688 11.007812 11.007813 11.007812h30.757813c6.078124 0 11.007812-4.925781 11.007812-11.007812zm0 0" fill="#f9a7a7"/><path d="m427.03125 455.984375h-48.648438c-8.902343 0-16.144531-7.242187-16.144531-16.144531v-194.921875c0-2.207031 1.792969-4 4-4h72.9375c2.207031 0 4 1.792969 4 4v194.921875c0 8.902344-7.242187 16.144531-16.144531 16.144531zm-56.792969-207.066406v190.921875c0 4.492187 3.65625 8.144531 8.144531 8.144531h48.648438c4.492188 0 8.144531-3.652344 8.144531-8.144531v-190.921875zm0 0" fill="#3762cc"/><path d="m442.695312 248.917969h-80.273437c-2.53125 0-4.769531-1.554688-5.84375-4.058594-3.644531-8.523437-5.664063-17.675781-5.992187-27.207031-.066407-1.871094.605468-3.671875 1.835937-4.949219 1.105469-1.140625 2.5625-1.773437 4.105469-1.773437h92.0625c1.542968 0 3 .632812 4.105468 1.777343 1.230469 1.273438 1.898438 3.074219 1.835938 4.945313-.332031 9.535156-2.347656 18.6875-5.996094 27.203125-1.078125 2.503906-3.3125 4.0625-5.839844 4.0625zm-79.09375-8h77.914063c2.8125-6.828125 4.511719-14.378907 4.949219-21.988281h-87.8125c.4375 7.601562 2.136718 15.15625 4.949218 21.988281zm84.988282-21.988281h.019531zm0 0" fill="#3762cc"/><path d="m450.054688 219.792969c-.082032 0-.164063-.003907-.246094-.007813-.828125-.050781-1.601563-.355468-2.238282-.855468h-90.042968c-.632813.492187-1.40625.792968-2.230469.839843-1.234375.070313-2.425781-.429687-3.238281-1.355469-11.847656-13.5-18.371094-31.074218-18.371094-49.476562 0-40.140625 30.898438-72.796875 68.875-72.796875 37.980469 0 68.878906 32.65625 68.878906 72.796875 0 18.410156-6.527344 35.988281-18.382812 49.492188-.757813.871093-1.855469 1.363281-3.003906 1.363281zm-1.464844-.863281h.019531zm-92.066406-8h92.066406c.105468 0 .210937.003906.316406.007812 9.394531-11.722656 14.539062-26.523438 14.539062-42 0-35.726562-27.308593-64.796875-60.878906-64.796875-33.566406 0-60.875 29.070313-60.875 64.796875 0 15.476562 5.140625 30.277344 14.535156 42 .097657-.007812.199219-.007812.296876-.007812zm0 0" fill="#3762cc"/><path d="m419.023438 473.675781h-30.757813c-8.277344 0-15.007813-6.730469-15.007813-15.007812v-6.742188c0-1.125.472657-2.199219 1.308594-2.957031.832032-.753906 1.953125-1.132812 3.066406-1.023438.253907.023438.511719.039063.773438.042969l48.625-.003906c.722656-.023437 1.3125-.082031 2.007812-.261719 1.195313-.308594 2.46875-.046875 3.445313.710938.976563.757812 1.546875 1.925781 1.546875 3.160156v7.074219c0 8.277343-6.734375 15.007812-15.007812 15.007812zm-37.765626-17.6875v2.683594c0 3.863281 3.140626 7.007813 7.007813 7.007813h30.757813c3.863281 0 7.007812-3.144532 7.007812-7.007813v-2.6875zm0 0" fill="#3762cc"/><path d="m469.265625 178.554688h-132.8125c-4.207031 0-7.617187-3.410157-7.617187-7.617188v-.441406c0-4.207032 3.410156-7.613282 7.617187-7.613282h132.8125c4.203125 0 7.613281 3.40625 7.613281 7.613282v.441406c0 4.207031-3.410156 7.617188-7.613281 7.617188zm0 0" fill="#6bdddd"/><path d="m469.265625 182.554688h-132.8125c-6.40625 0-11.617187-5.210938-11.617187-11.617188v-.441406c0-6.40625 5.210937-11.617188 11.617187-11.617188h132.8125c6.40625 0 11.617187 5.210938 11.617187 11.617188v.441406c-.003906 6.40625-5.214843 11.617188-11.617187 11.617188zm-132.8125-15.675782c-1.996094 0-3.617187 1.625-3.617187 3.617188v.441406c0 1.996094 1.621093 3.621094 3.617187 3.621094h132.808594c1.996093 0 3.617187-1.625 3.617187-3.621094v-.441406c0-1.992188-1.621094-3.617188-3.617187-3.617188zm0 0" fill="#3762cc"/><path d="m170.835938 309.246094c-.582032 0-1.171876.066406-1.742188.1875l-96.476562 20.855468c-3.75.8125-6.472657 4.1875-6.472657 8.027344v82.40625c-3.035156-.859375-6.316406-1.332031-9.765625-1.332031-2.21875 0-4.464844.199219-6.679687.589844-8.039063 1.417969-15.1875 5.242187-20.136719 10.769531-5.167969 5.769531-7.355469 12.699219-6.15625 19.507812 2.082031 11.808594 13.753906 20.054688 28.382812 20.054688 2.214844 0 4.460938-.199219 6.679688-.589844 8.035156-1.417968 15.1875-5.242187 20.136719-10.769531 4.613281-5.152344 6.832031-11.226563 6.402343-17.316406.015626-.226563.066407-.441407.066407-.667969v-73.957031l75.027343-16.222657v53.28125c-3.035156-.855468-6.3125-1.332031-9.761718-1.332031-2.21875 0-4.464844.199219-6.683594.589844-8.035156 1.414063-15.1875 5.242187-20.136719 10.765625-5.167969 5.773438-7.355469 12.703125-6.152343 19.511719 2.082031 11.808593 13.75 20.050781 28.378906 20.050781 2.214844 0 4.460937-.195312 6.679687-.585938 8.035157-1.417968 15.1875-5.242187 20.136719-10.769531 4.671875-5.21875 6.878906-11.378906 6.378906-17.546875.027344-.308594.09375-.605468.09375-.921875v-106.378906c0-4.523437-3.675781-8.207031-8.199218-8.207031zm0 0" fill="#f9a7a7"/><path d="m145.746094 442.453125c-8.945313 0-16.238282-4.535156-17.34375-10.789063-.796875-4.515624 1.828125-8.257812 3.464844-10.085937 3.238281-3.613281 8.242187-6.242187 13.734374-7.210937 1.578126-.277344 3.167969-.417969 4.734376-.417969 8.945312 0 16.238281 4.539062 17.34375 10.789062 1.175781 6.683594-5.453126 15.226563-17.199219 17.296875-1.578125.28125-3.167969.417969-4.734375.417969zm0 0" fill="#ffea92"/><path d="m86.355469 355.5625c-3.210938 0-5.820313-2.617188-5.820313-5.832031v-7.304688c0-2.75 1.871094-5.085937 4.554688-5.6875l72.367187-16.175781c.421875-.09375.851563-.140625 1.277344-.140625 3.210937 0 5.824219 2.613281 5.824219 5.828125v7.304688c0 2.75-1.875 5.085937-4.558594 5.6875l-72.367188 16.175781c-.421874.09375-.847656.144531-1.277343.144531zm0 0" fill="#ffea92"/><path d="m51.789062 459.105469c-8.945312 0-16.242187-4.539063-17.34375-10.789063-.796874-4.519531 1.828126-8.261718 3.464844-10.089844 3.234375-3.613281 8.238282-6.238281 13.734375-7.207031 1.574219-.277343 3.167969-.421875 4.734375-.421875 8.945313 0 16.238282 4.539063 17.34375 10.792969.628906 3.554687-.894531 7.496094-4.167968 10.804687-3.242188 3.277344-7.871094 5.578126-13.03125 6.492188-1.578126.277344-3.171876.417969-4.734376.417969zm0 0" fill="#ffea92"/></svg>