<?xml version="1.0"?>
<svg xmlns="http://www.w3.org/2000/svg" height="512px" viewBox="0 -12 512.0001 512" width="512px" class=""><g><path d="m101.269531 361.609375c-3.867187-3.863281-10.328125-3.863281-14.195312 0l-21.664063 21.664063c-3.917968 3.921874-3.917968 10.277343 0 14.195312l27.128906 27.128906c3.867188 3.867188 10.324219 3.867188 14.191407 0l21.664062-21.664062c3.867188-3.867188 3.867188-10.328125 0-14.195313zm-1.632812 41.699219-12.9375-12.9375 7.472656-7.46875 12.933594 12.933594zm0 0" data-original="#000000" class="active-path" data-old_color="#000000" fill="#FFFFFF"/><path d="m122.808594 340.070312c-9.15625-9.152343-23.347656 5.039063-14.191406 14.195313l27.128906 27.128906c8.972656 8.96875 23.351562-5.035156 14.191406-14.195312zm0 0" data-original="#000000" class="active-path" data-old_color="#000000" fill="#FFFFFF"/><path d="m509.0625 58.039062-10.726562-10.726562c.167968-.105469.332031-.210938.5-.3125 8.941406-5.355469 9.914062-11.476562 9.152343-15.667969-1.796875-9.90625-13.785156-12.097656-17.726562-12.816406-5.96875-1.089844-13.753907-1.605469-22.296875-1.574219l-13.984375-13.984375c-9.15625-9.152343-23.347657 5.039063-14.191407 14.195313l1.488282 1.488281c-2.191406.269531-4.378906.566406-6.558594.902344l-10.492188-10.488281c-9.152343-9.15625-23.347656 5.039062-14.191406 14.191406l1.570313 1.574218c-2.277344.746094-4.414063 1.539063-6.40625 2.378907l-6.589844-6.589844c-9.15625-9.152344-23.347656 5.039063-14.195313 14.195313 5.457032 3.050781 2.691407 4.519531 1.765626 9.03125l-4.832032 23.503906-126.847656 126.847656c-1.640625-12.273438-2.0625-23.625-1.261719-34.648438 0-.007812.003907-.019531.003907-.03125 0-.007812 0-.019531 0-.027343 1.75-23.863281 11.40625-40.757813 25.367187-58.789063 4.503906-5.820312 1.046875-14.800781-6.257813-16.039062-49.292968-8.363282-100.816406 68.925781-108.460937 102.492187-2.152344 9.449219-2.761719 20.210938-7.882813 28.695313-7.851562 13.007812-26.023437 16.675781-36.160156 17.703125-6.019531.609375-12.105468.769531-18.546875.9375-10.925781.285156-22.226562.578125-33.53125 3.226562-21.777343 5.105469-40.546875 18.90625-52.851562 38.859375-13.808594 22.390625-18.382813 51.046875-12.242188 76.65625 5.738281 23.914063 18.839844 47.144532 38.941407 69.046875 17.082031 18.617188 38.414062 35.261719 61.6875 48.136719 23.792968 13.160156 43.570312 17.414062 59.203124 17.414062 15.382813 0 26.753907-4.121093 33.960938-7.925781 27.003906-14.246093 35.050781-40.011719 42.152344-62.746093 1.671875-5.347657 3.398437-10.875 5.308594-16.109376 8.628906-23.605468 25.855468-42.855468 47.269531-52.816406 5.078125-2.363281 10.898437-4.351562 17.058593-6.460937 19.078126-6.523438 40.699219-13.914063 50.101563-36.148438 7.488281-17.703125-6.410156-29.503906-23.664063-27.214843l-48.699218 6.449218c-1.242188.164063-4.152344.546875-4.921875.265625-.488281-.320312-1.402344-1.644531-2.996094-6.144531-2.273437-6.421875-4.492187-12.734375-6.652344-19.066406l150.878907-150.878906 16.988281-1.855469c4.660156-.507813 9.023437-2.164063 12.761719-4.730469l4.429687 4.429688c8.972656 8.972656 23.351563-5.035157 14.191406-14.195313l-6.359375-6.359375c.984375-1.703125 2.085938-3.546875 3.300782-5.484375l7.453124 7.453125c8.976563 8.972656 23.351563-5.035156 14.195313-14.195312l-9.757813-9.757813c1.125-1.34375 2.285157-2.675781 3.484376-3.976563l11.878906 11.878907c8.972656 8.972656 23.351562-5.035157 14.191406-14.191407zm-343.542969 279.386719-12.933593-12.9375 237.988281-237.988281 12.933593 12.933594zm93.636719-51.757812c1.679688 4.742187 4.804688 13.570312 13.335938 17.589843 6.003906 2.828126 12.101562 2.023438 16.136718 1.488282l48.703125-6.449219c.980469-.132813 1.777344-.199219 2.425781-.234375-5.992187 13.765625-21.539062 19.082031-37.992187 24.707031-6.386719 2.183594-12.988281 4.441407-19.03125 7.253907-26.199219 12.1875-47.214844 35.5625-57.65625 64.128906-2.078125 5.679687-3.875 11.441406-5.617187 17.011718-6.800782 21.78125-12.679688 40.59375-32.359376 50.976563-25.507812 13.453125-57.359374-.050781-74.078124-9.300781-36.683594-20.289063-79.804688-58.347656-90.828126-104.300782-4.925781-20.527343-1.257812-43.496093 9.808594-61.441406 6.707032-10.875 19.148438-24.882812 40.347656-29.851562 9.300782-2.179688 19.097657-2.433594 29.472657-2.703125 6.527343-.171875 13.277343-.347657 20.050781-1.03125 23.933594-2.429688 42.15625-12.125 51.316406-27.300781 5.246094-8.6875 7.019532-18.011719 8.734375-27.027344 4.671875-24.550782 18.757813-46.703125 35.171875-65.214844 10.945313-12.347656 21.9375-21.152344 32.019532-25.871094-8.125 13.734375-14.410157 29.71875-15.894532 49.894532 0 .019531 0 .035156-.003906.054687-.9375 12.835937-.425781 25.972656 1.558594 40.164063.609375 4.34375 1.371094 8.84375 2.273437 13.425781l-105.757812 105.753906c-3.863281 3.867187-3.863281 10.328125 0 14.195313l27.128906 27.128906c3.867187 3.863281 10.328125 3.863281 14.195313 0l83.027343-83.027344c1.160157 3.3125 2.328125 6.632812 3.511719 9.980469 1.679688 4.742187-1.183594-3.347657 0 0zm177.957031-198.449219-15.714843 1.714844c-6.636719-6.632813-13.273438-13.269532-19.90625-19.902344l3.894531-18.949219c3.589843-3.503906 16.5-9.09375 40.5-11.78125 10.621093-1.191406 21.507812-1.695312 32.179687-1.007812-16.601562 13.957031-28.667968 33.941406-34.921875 45.84375-1.195312 2.269531-3.449219 3.800781-6.03125 4.082031zm0 0" data-original="#000000" class="active-path" data-old_color="#000000" fill="#FFFFFF"/><path d="m80.34375 299.835938c5.230469-1.835938 7.980469-7.566407 6.140625-12.796876-1.835937-5.226562-7.566406-7.976562-12.796875-6.140624-13.699219 4.816406-34.402344 12.089843-34.402344 42.960937 0 12.882813 20.070313 12.902344 20.070313 0 0-16.648437 7.457031-19.269531 20.988281-24.023437 5.230469-1.835938-13.53125 4.753906 0 0zm0 0" data-original="#000000" class="active-path" data-old_color="#000000" fill="#FFFFFF"/><path d="m116.484375 292.320312c5.363281 0 9.949219-4.503906 10.019531-9.871093.070313-5.566407-4.492187-10.164063-10.042968-10.171875-5.539063-.003906-10.121094 4.703125-10.007813 10.242187.113281 5.328125 4.707031 9.800781 10.03125 9.800781zm0 0" data-original="#000000" class="active-path" data-old_color="#000000" fill="#FFFFFF"/></g> </svg>
